<svg id="social_icon_tiktok" xmlns="http://www.w3.org/2000/svg" width="26.509" height="29" viewBox="0 0 26.509 29">
  <path id="Path_21" data-name="Path 21" d="M10.322,216.044v-1.16A9.388,9.388,0,0,0,9.1,214.8,8.959,8.959,0,0,0,0,223.592a8.706,8.706,0,0,0,3.883,7.2A8.577,8.577,0,0,1,1.47,224.8a8.9,8.9,0,0,1,8.852-8.76" transform="translate(0 -204.598)" fill="#25f4ee"/>
  <path id="Path_22" data-name="Path 22" d="M149.29,24.252a4.148,4.148,0,0,0,4.178-3.894l.007-19.116,3.588-.029A6.437,6.437,0,0,1,156.945,0H152L152,19.146a4.1,4.1,0,0,1-4.146,3.865,4.239,4.239,0,0,1-1.927-.461,4.218,4.218,0,0,0,3.368,1.7" transform="translate(-138.753)" fill="#25f4ee"/>
  <path id="Path_23" data-name="Path 23" d="M437.768,119.452v-1.1a7,7,0,0,1-3.744-1.076,6.975,6.975,0,0,0,3.744,2.172" transform="translate(-412.7 -111.71)" fill="#25f4ee"/>
  <path id="Path_24" data-name="Path 24" d="M375.678,29.882a6.49,6.49,0,0,1-1.691-4.358h-1.324a6.655,6.655,0,0,0,3.015,4.358" transform="translate(-354.354 -24.312)" fill="#fe2c55"/>
  <path id="Path_25" data-name="Path 25" d="M104.742,243.888a4.092,4.092,0,0,0-4.154,4.016,4,4,0,0,0,2.227,3.554,3.9,3.9,0,0,1-.787-2.342,4.092,4.092,0,0,1,4.154-4.016,4.217,4.217,0,0,1,1.226.186v-4.877a9.379,9.379,0,0,0-1.226-.086c-.072,0-.143,0-.215.005v3.745a4.219,4.219,0,0,0-1.226-.186" transform="translate(-95.646 -228.909)" fill="#fe2c55"/>
  <path id="Path_26" data-name="Path 26" d="M100.225,162.352v3.713a12.03,12.03,0,0,1-6.876-2.137v9.708a8.959,8.959,0,0,1-9.1,8.793,9.259,9.259,0,0,1-5.213-1.594,9.218,9.218,0,0,0,6.653,2.806,8.959,8.959,0,0,0,9.1-8.793V165.14a12.03,12.03,0,0,0,6.876,2.137V162.5a7.1,7.1,0,0,1-1.441-.148" transform="translate(-75.157 -154.641)" fill="#fe2c55"/>
  <path id="Path_27" data-name="Path 27" d="M46.072,43.306V33.6a12.03,12.03,0,0,0,6.876,2.137V32.022A6.929,6.929,0,0,1,49.2,29.882a6.655,6.655,0,0,1-3.015-4.358H42.571L42.563,44.67a4.1,4.1,0,0,1-4.146,3.865,4.193,4.193,0,0,1-3.368-1.674,4,4,0,0,1-2.227-3.554,4.092,4.092,0,0,1,4.154-4.016,4.22,4.22,0,0,1,1.226.186V35.731a8.949,8.949,0,0,0-8.882,8.788,8.6,8.6,0,0,0,2.443,5.987A9.259,9.259,0,0,0,36.976,52.1a8.959,8.959,0,0,0,9.1-8.793" transform="translate(-27.879 -24.312)"/>
</svg>
