<svg xmlns="http://www.w3.org/2000/svg" width="34.287" height="24" viewBox="0 0 34.287 24">
  <path id="social_icon_youtube" d="M33.57,3.748A4.293,4.293,0,0,0,30.539.717C27.864,0,17.142,0,17.142,0S6.421,0,3.748.717A4.289,4.289,0,0,0,.717,3.748,44.584,44.584,0,0,0,0,12a44.6,44.6,0,0,0,.717,8.252,4.293,4.293,0,0,0,3.031,3.031C6.421,24,17.142,24,17.142,24s10.722,0,13.4-.717a4.3,4.3,0,0,0,3.031-3.031A44.6,44.6,0,0,0,34.287,12a44.585,44.585,0,0,0-.717-8.252M13.716,17.142V6.858L22.623,12Z" fill="red"/>
</svg>
